<?xml version="1.0" standalone="no"?>
<!DOCTYPE svg PUBLIC "-//W3C//DTD SVG 20010904//EN"
 "http://www.w3.org/TR/2001/REC-SVG-20010904/DTD/svg10.dtd">
<svg version="1.0" xmlns="http://www.w3.org/2000/svg"
 width="157.000000pt" height="243.000000pt" viewBox="0 0 157.000000 243.000000"
 preserveAspectRatio="xMidYMid meet">
<metadata>
Created by potrace 1.10, written by Peter Selinger 2001-2011
</metadata>
<g transform="translate(0.000000,243.000000) scale(0.100000,-0.100000)"
fill="#000000" stroke="none">
<path d="M626 2204 c-79 -19 -181 -74 -249 -135 -193 -172 -248 -469 -131
-709 46 -93 160 -210 249 -255 33 -16 63 -33 66 -37 3 -5 11 -48 18 -98 l13
-89 -54 -75 -53 -74 -6 98 c-3 69 -10 105 -23 124 -57 88 -195 87 -253 -1 -16
-25 -18 -55 -18 -324 0 -285 1 -299 21 -325 37 -50 70 -68 124 -68 54 0 87 18
124 67 17 23 21 48 26 150 l5 123 62 83 62 83 6 -39 c17 -100 48 -142 122
-164 35 -10 51 -10 85 0 75 22 106 64 123 164 l6 39 62 -83 62 -83 5 -123 c5
-102 9 -127 26 -150 37 -49 70 -67 124 -67 54 0 87 18 124 68 20 26 21 40 21
325 0 269 -2 299 -18 324 -58 88 -196 89 -253 1 -13 -19 -20 -55 -23 -124 l-6
-98 -53 74 -54 75 13 89 c7 50 15 93 18 98 3 4 33 21 66 37 89 45 203 162 249
255 117 240 62 537 -131 709 -70 62 -170 116 -254 136 -79 18 -225 18 -303 -1z
m285 -90 c221 -65 369 -259 369 -483 -1 -285 -218 -503 -500 -503 -283 0 -500
218 -500 502 0 275 222 499 496 500 45 0 104 -7 135 -16z m-21 -1099 c0 -41
-41 -331 -50 -353 -24 -57 -102 -47 -119 15 -11 38 -51 309 -51 341 0 15 14
17 110 17 103 0 110 -1 110 -20z m-522 -97 c9 -9 12 -87 12 -290 l0 -278 -25
-16 c-23 -15 -27 -15 -50 0 l-25 16 0 278 c0 203 3 281 12 290 15 15 61 15 76
0z m900 0 c9 -9 12 -87 12 -290 l0 -278 -25 -16 c-23 -15 -27 -15 -50 0 l-25
16 0 278 c0 203 3 281 12 290 15 15 61 15 76 0z"/>
<path d="M690 1801 c-47 -24 -97 -91 -105 -139 -9 -54 9 -115 47 -158 80 -91
199 -96 284 -10 73 73 81 169 21 248 -43 55 -89 78 -157 78 -35 0 -68 -7 -90
-19z m161 -100 c40 -41 41 -98 1 -142 -62 -70 -172 -24 -172 72 0 57 42 99
100 99 33 0 48 -6 71 -29z"/>
</g>
</svg>
