<?xml version="1.0" standalone="no"?>
<!DOCTYPE svg PUBLIC "-//W3C//DTD SVG 20010904//EN"
 "http://www.w3.org/TR/2001/REC-SVG-20010904/DTD/svg10.dtd">
<svg version="1.0" xmlns="http://www.w3.org/2000/svg"
 width="31.000000pt" height="38.000000pt" viewBox="0 0 31.000000 38.000000"
 preserveAspectRatio="xMidYMid meet">
<metadata>
Created by potrace 1.10, written by Peter Selinger 2001-2011
</metadata>
<g transform="translate(0.000000,38.000000) scale(0.100000,-0.100000)"
fill="#000000" stroke="none">
<path d="M120 338 c0 -6 7 -19 16 -29 12 -14 14 -29 9 -74 -7 -54 -8 -56 -34
-50 -23 5 -28 1 -44 -37 -13 -32 -20 -39 -26 -29 -6 9 -10 -4 -12 -39 -2 -28
-1 -54 4 -57 4 -2 7 2 7 9 0 21 69 53 114 54 24 0 52 -7 68 -18 14 -10 31 -18
37 -18 6 0 11 -7 11 -16 0 -8 5 -12 10 -9 13 8 13 92 1 99 -5 4 -11 1 -13 -5
-2 -6 -12 7 -23 30 -16 37 -21 41 -45 36 -27 -6 -28 -5 -33 52 -3 41 -1 63 9
74 23 26 16 39 -21 39 -20 0 -35 -5 -35 -12z"/>
</g>
</svg>
