<?xml version="1.0" standalone="no"?>
<!DOCTYPE svg PUBLIC "-//W3C//DTD SVG 20010904//EN"
 "http://www.w3.org/TR/2001/REC-SVG-20010904/DTD/svg10.dtd">
<svg version="1.0" xmlns="http://www.w3.org/2000/svg"
 width="170.000000pt" height="288.000000pt" viewBox="0 0 170.000000 288.000000"
 preserveAspectRatio="xMidYMid meet">
<metadata>
Created by potrace 1.10, written by Peter Selinger 2001-2011
</metadata>
<g transform="translate(0.000000,288.000000) scale(0.100000,-0.100000)"
fill="#000000" stroke="none">
<path d="M680 2851 c-289 -61 -527 -269 -621 -544 -82 -238 -56 -486 72 -705
83 -140 282 -302 436 -353 l63 -21 0 -196 0 -197 -120 -120 -120 -120 0 133 0
132 -160 0 -160 0 0 -425 0 -425 160 0 160 0 0 198 0 197 120 120 120 120 0
-133 0 -132 220 0 220 0 0 132 0 133 120 -120 120 -120 0 -197 0 -198 160 0
160 0 0 425 0 425 -160 0 -160 0 0 -122 0 -123 -120 120 -120 120 0 187 0 186
53 18 c127 41 240 116 346 230 265 284 293 719 66 1039 -191 269 -533 404
-855 336z"/>
</g>
</svg>
